# xmcd
#
# Track frame offsets:
#	150
#	15804
#	30530
#	45262
#	58213
#	75018
#	90979
#	102995
#	120881
#	140495
#	151768
#	166983
#
# Disc length: 2409 seconds
#
# Revision: 2
# Processed by: cddbd v1.4PL0 Copyright (c) Steve Scherf et al.
# Submitted via: audiograbber 1.81.01
#
DISCID=7209670c
DTITLE=Luciano Rossi - I Grandi Successi Originali cd2
DYEAR=1900
DGENRE=Pop
TTITLE0=Voglio un'amante
TTITLE1=Ritornerà
TTITLE2=Non te ne andare
TTITLE3=Mi arrendo
TTITLE4=Me metti un lento
TTITLE5=Un bacio
TTITLE6=Oggi al massimo domani
TTITLE7=Abbasso te
TTITLE8=La mano
TTITLE9=Se per caso domani
TTITLE10=L'amore a sedici anni
TTITLE11=Con calma è per piacere
EXTD=
EXTT0=
EXTT1=
EXTT2=
EXTT3=
EXTT4=
EXTT5=
EXTT6=
EXTT7=
EXTT8=
EXTT9=
EXTT10=
EXTT11=
PLAYORDER=
